<svg width="640" height="360" viewBox="0 0 640 360" fill="none" xmlns="http://www.w3.org/2000/svg" role="img" aria-labelledby="title desc">
  <title id="title">Chat App cover</title>
  <desc id="desc">Illustrated chat workspace with rooms and message bubbles.</desc>
  <rect width="640" height="360" rx="28" fill="#eef4ff"/>
  <rect x="74" y="68" width="492" height="224" rx="18" fill="#ffffff" stroke="#b7c8ff" stroke-width="4"/>
  <rect x="100" y="94" width="142" height="172" rx="14" fill="#111827"/>
  <rect x="122" y="120" width="76" height="10" rx="5" fill="#ffffff"/>
  <rect x="122" y="150" width="98" height="22" rx="8" fill="#6675f6"/>
  <rect x="122" y="184" width="78" height="22" rx="8" fill="#243047"/>
  <rect x="122" y="218" width="92" height="22" rx="8" fill="#243047"/>
  <rect x="280" y="108" width="172" height="38" rx="14" fill="#dbe5ff" stroke="#8ba3ff" stroke-width="3"/>
  <rect x="332" y="166" width="156" height="38" rx="14" fill="#fde68a" stroke="#facc15" stroke-width="3"/>
  <rect x="280" y="224" width="200" height="38" rx="14" fill="#dcfce7" stroke="#86efac" stroke-width="3"/>
  <circle cx="514" cy="80" r="10" fill="#6ee7b7"/>
  <circle cx="560" cy="132" r="6" fill="#6675f6"/>
  <circle cx="72" cy="254" r="8" fill="#f97316"/>
  <path d="M522 240l28 28 38-54" stroke="#22c55e" stroke-width="12" stroke-linecap="round" stroke-linejoin="round"/>
  <path d="M54 112h26M560 296h26M424 48v24M458 60l18-18" stroke="#6675f6" stroke-width="5" stroke-linecap="round"/>
</svg>
