<svg xmlns="http://www.w3.org/2000/svg" viewBox="0 0 640 360" role="img" aria-labelledby="title desc">
  <title id="title">Digital Clock project cover</title>
  <desc id="desc">Illustrated digital clock interface with timezone controls.</desc>
  <rect width="640" height="360" fill="#eef4ff"/>
  <rect x="62" y="72" width="516" height="216" rx="22" fill="#ffffff" stroke="#c4d4f5" stroke-width="4"/>
  <rect x="92" y="110" width="300" height="100" rx="18" fill="#151b26"/>
  <text x="242" y="176" fill="#f4d35e" font-family="Arial, sans-serif" font-size="48" font-weight="800" text-anchor="middle">12:45</text>
  <rect x="418" y="114" width="104" height="32" rx="10" fill="#f4d35e" stroke="#2d3340" stroke-width="4"/>
  <rect x="418" y="164" width="104" height="32" rx="10" fill="#93d5bd" stroke="#2d3340" stroke-width="4"/>
  <rect x="418" y="214" width="104" height="32" rx="10" fill="#5865f2" stroke="#2d3340" stroke-width="4"/>
  <path d="M116 236h96M236 236h64M324 236h38" stroke="#2d3340" stroke-width="6" stroke-linecap="round"/>
  <circle cx="114" cy="86" r="8" fill="#93d5bd"/>
  <circle cx="540" cy="88" r="8" fill="#5865f2"/>
  <circle cx="528" cy="270" r="8" fill="#e9785f"/>
  <path d="M80 42h34M128 42h18M502 42h34M488 316h70M90 316h42" stroke="#2d3340" stroke-width="5" stroke-linecap="round"/>
  <path d="M294 74c18-28 54-28 72 0" fill="none" stroke="#5865f2" stroke-width="5" stroke-linecap="round"/>
</svg>
