<svg width="960" height="540" viewBox="0 0 960 540" fill="none" xmlns="http://www.w3.org/2000/svg">
  <rect width="960" height="540" rx="28" fill="#eef5ff"/>
  <rect x="116" y="92" width="728" height="356" rx="26" fill="#ffffff" stroke="#bfd0f7" stroke-width="6"/>
  <rect x="156" y="132" width="278" height="196" rx="20" fill="#182033"/>
  <rect x="188" y="170" width="170" height="18" rx="9" fill="#ffffff"/>
  <rect x="188" y="214" width="214" height="14" rx="7" fill="#7f9cf5"/>
  <rect x="188" y="248" width="154" height="14" rx="7" fill="#f3c969"/>
  <circle cx="386" cy="286" r="22" fill="#76d7a4"/>
  <rect x="526" y="150" width="248" height="150" rx="18" fill="#f8fbff" stroke="#9fb6ef" stroke-width="5"/>
  <path d="M570 198h158" stroke="#182033" stroke-width="14" stroke-linecap="round"/>
  <path d="M570 238h102" stroke="#7f9cf5" stroke-width="12" stroke-linecap="round"/>
  <path d="M570 274h132" stroke="#f3c969" stroke-width="12" stroke-linecap="round"/>
  <rect x="518" y="326" width="110" height="42" rx="21" fill="#76d7a4"/>
  <rect x="646" y="326" width="110" height="42" rx="21" fill="#f27575"/>
  <path d="M552 346l16 15 32-36" stroke="#ffffff" stroke-width="10" stroke-linecap="round" stroke-linejoin="round"/>
  <path d="M684 336l32 32M716 336l-32 32" stroke="#ffffff" stroke-width="10" stroke-linecap="round"/>
  <circle cx="116" cy="92" r="18" fill="#f27575"/>
  <circle cx="844" cy="448" r="22" fill="#7f9cf5"/>
  <circle cx="824" cy="96" r="10" fill="#76d7a4"/>
  <path d="M78 382h52M104 356v52" stroke="#7f9cf5" stroke-width="8" stroke-linecap="round"/>
  <path d="M850 150h46M873 127v46" stroke="#f3c969" stroke-width="8" stroke-linecap="round"/>
</svg>
