<svg width="960" height="540" viewBox="0 0 960 540" fill="none" xmlns="http://www.w3.org/2000/svg">
  <rect width="960" height="540" rx="18" fill="#EEF4FF"/>
  <rect x="164" y="92" width="632" height="356" rx="22" fill="white" stroke="#BFD3F7" stroke-width="4"/>
  <rect x="220" y="146" width="520" height="58" rx="14" fill="#D7F4DF" stroke="#86CDA1" stroke-width="4"/>
  <rect x="220" y="238" width="520" height="58" rx="14" fill="#FFF4BF" stroke="#D9B85C" stroke-width="4"/>
  <rect x="220" y="330" width="520" height="58" rx="14" fill="#DBEAFE" stroke="#88A9E8" stroke-width="4"/>
  <circle cx="262" cy="175" r="16" fill="#86CDA1"/>
  <path d="M252 174L260 182L276 164" stroke="white" stroke-width="6" stroke-linecap="round" stroke-linejoin="round"/>
  <circle cx="262" cy="267" r="16" fill="white" stroke="#141B27" stroke-width="4"/>
  <circle cx="262" cy="359" r="16" fill="white" stroke="#141B27" stroke-width="4"/>
  <rect x="308" y="164" width="176" height="18" rx="9" fill="#141B27"/>
  <rect x="308" y="256" width="224" height="18" rx="9" fill="#141B27"/>
  <rect x="308" y="348" width="150" height="18" rx="9" fill="#141B27"/>
  <rect x="614" y="160" width="82" height="26" rx="13" fill="#4C6BCF"/>
  <rect x="614" y="252" width="82" height="26" rx="13" fill="#E37763"/>
  <rect x="614" y="344" width="82" height="26" rx="13" fill="#86CDA1"/>
  <path d="M760 92V54H706" stroke="#AFC5F5" stroke-width="5" stroke-linecap="round"/>
  <path d="M196 448V486H250" stroke="#AFC5F5" stroke-width="5" stroke-linecap="round"/>
  <circle cx="132" cy="174" r="14" fill="#86CDA1"/>
  <circle cx="838" cy="358" r="14" fill="#F1D343"/>
  <path d="M122 346H158M140 328V364" stroke="#4C6BCF" stroke-width="6" stroke-linecap="round"/>
  <path d="M804 174H840M822 156V192" stroke="#4C6BCF" stroke-width="6" stroke-linecap="round"/>
</svg>
