<svg xmlns="http://www.w3.org/2000/svg" viewBox="0 0 640 320" role="img" aria-labelledby="title desc">
  <title id="title">Math 4 Kids cover</title>
  <desc id="desc">Playful math cards with numbers, symbols, and a progress check.</desc>
  <rect width="640" height="320" fill="#eef4ff"/>
  <rect x="44" y="42" width="552" height="236" rx="22" fill="#f8fbff" stroke="#b8c8f6" stroke-width="4"/>
  <circle cx="122" cy="92" r="14" fill="#7dd3fc"/>
  <circle cx="526" cy="236" r="16" fill="#86efac"/>
  <circle cx="548" cy="82" r="10" fill="#facc15"/>
  <g fill="none" stroke="#6b7cff" stroke-linecap="round" stroke-width="5">
    <path d="M76 142h56M104 114v56"/>
    <path d="M484 126h64"/>
    <path d="M500 188l20 20 42-54"/>
  </g>
  <g font-family="Arial, sans-serif" font-weight="800">
    <rect x="168" y="86" width="112" height="92" rx="14" fill="#ffffff" stroke="#263142" stroke-width="4"/>
    <text x="224" y="146" fill="#263142" font-size="54" text-anchor="middle">8</text>
    <rect x="304" y="86" width="112" height="92" rx="14" fill="#fff7df" stroke="#d97706" stroke-width="4"/>
    <text x="360" y="146" fill="#d97706" font-size="54" text-anchor="middle">3</text>
    <text x="292" y="150" fill="#263142" font-size="42" text-anchor="middle">+</text>
    <text x="434" y="150" fill="#263142" font-size="42" text-anchor="middle">=</text>
    <rect x="168" y="204" width="248" height="38" rx="12" fill="#dbeafe"/>
    <text x="292" y="230" fill="#2563eb" font-size="22" text-anchor="middle">Score + Streak</text>
  </g>
  <g fill="#263142">
    <circle cx="86" cy="230" r="4"/>
    <circle cx="106" cy="230" r="4"/>
    <circle cx="126" cy="230" r="4"/>
    <circle cx="86" cy="250" r="4"/>
    <circle cx="106" cy="250" r="4"/>
    <circle cx="126" cy="250" r="4"/>
  </g>
</svg>
