<svg xmlns="http://www.w3.org/2000/svg" viewBox="0 0 640 320" role="img" aria-labelledby="title desc">
  <title id="title">Memory Game cover</title>
  <desc id="desc">Illustrated card matching board with paired symbols.</desc>
  <rect width="640" height="320" fill="#eef4ff"/>
  <rect x="84" y="46" width="472" height="228" rx="22" fill="#ffffff" stroke="#b8c9f4" stroke-width="4"/>
  <g fill="#5b6ee1" stroke="#1f2937" stroke-width="4">
    <rect x="126" y="82" width="78" height="78" rx="12"/>
    <rect x="224" y="82" width="78" height="78" rx="12"/>
    <rect x="322" y="82" width="78" height="78" rx="12"/>
    <rect x="420" y="82" width="78" height="78" rx="12"/>
    <rect x="126" y="180" width="78" height="78" rx="12"/>
    <rect x="224" y="180" width="78" height="78" rx="12"/>
    <rect x="322" y="180" width="78" height="78" rx="12"/>
    <rect x="420" y="180" width="78" height="78" rx="12"/>
  </g>
  <rect x="224" y="82" width="78" height="78" rx="12" fill="#f4d35e"/>
  <rect x="322" y="180" width="78" height="78" rx="12" fill="#f4d35e"/>
  <path d="M250 122h26M263 109v26M348 220h26M361 207v26" stroke="#1f2937" stroke-width="8" stroke-linecap="round"/>
  <path d="M152 121h26M446 219h26" stroke="#ffffff" stroke-width="8" stroke-linecap="round"/>
  <circle cx="536" cy="58" r="13" fill="#86cda1"/>
  <circle cx="88" cy="252" r="10" fill="#e6775f"/>
  <path d="M54 92h24M66 80v24M570 214h24M582 202v24" stroke="#5b6ee1" stroke-width="6" stroke-linecap="round"/>
</svg>
