<svg xmlns="http://www.w3.org/2000/svg" width="960" height="540" viewBox="0 0 960 540" role="img" aria-labelledby="title desc">
  <title id="title">Odd Even Counter project cover</title>
  <desc id="desc">A split illustration with odd and even number lanes generated by a timer.</desc>
  <defs>
    <linearGradient id="bg" x1="90" x2="870" y1="20" y2="520" gradientUnits="userSpaceOnUse">
      <stop stop-color="#f7fbff"/>
      <stop offset="1" stop-color="#e8f0ff"/>
    </linearGradient>
    <linearGradient id="odd" x1="230" x2="430" y1="155" y2="360" gradientUnits="userSpaceOnUse">
      <stop stop-color="#74d99f"/>
      <stop offset="1" stop-color="#3f7f65"/>
    </linearGradient>
    <linearGradient id="even" x1="530" x2="730" y1="155" y2="360" gradientUnits="userSpaceOnUse">
      <stop stop-color="#86a8ff"/>
      <stop offset="1" stop-color="#4f6fd9"/>
    </linearGradient>
    <filter id="shadow" width="140%" height="140%" x="-20%" y="-20%" color-interpolation-filters="sRGB">
      <feDropShadow dx="0" dy="16" stdDeviation="18" flood-color="#19324f" flood-opacity=".18"/>
    </filter>
  </defs>
  <rect width="960" height="540" fill="url(#bg)" rx="28"/>
  <path d="M116 96h702v348H142V137" fill="none" stroke="#aac5f8" stroke-width="4"/>
  <circle cx="126" cy="152" r="11" fill="#8dd7c4"/>
  <circle cx="824" cy="152" r="10" fill="#f0d54d"/>
  <circle cx="824" cy="386" r="22" fill="none" stroke="#9fbaf6" stroke-width="4"/>
  <path d="M702 84v92h92c0-50.8-41.2-92-92-92Z" fill="#5470ea"/>
  <path d="M134 404a82 82 0 0 1 82-82v82h-82Z" fill="#5470ea"/>
  <g fill="#4f6fea">
    <circle cx="72" cy="205" r="4"/><circle cx="91" cy="205" r="4"/><circle cx="110" cy="205" r="4"/>
    <circle cx="72" cy="224" r="4"/><circle cx="91" cy="224" r="4"/><circle cx="110" cy="224" r="4"/>
    <circle cx="72" cy="243" r="4"/><circle cx="91" cy="243" r="4"/><circle cx="110" cy="243" r="4"/>
  </g>
  <g fill="#1a2230" opacity=".88">
    <circle cx="858" cy="260" r="4"/><circle cx="877" cy="260" r="4"/><circle cx="896" cy="260" r="4"/>
    <circle cx="858" cy="279" r="4"/><circle cx="877" cy="279" r="4"/><circle cx="896" cy="279" r="4"/>
    <circle cx="858" cy="298" r="4"/><circle cx="877" cy="298" r="4"/><circle cx="896" cy="298" r="4"/>
  </g>
  <g filter="url(#shadow)">
    <rect x="352" y="86" width="256" height="96" fill="#17202c" rx="22"/>
    <circle cx="480" cy="134" r="35" fill="#f4d44f"/>
    <path d="M480 100v-22M480 190v-22M446 134h-22M536 134h-22M455 109l-16-16M521 109l16-16M455 159l-16 16M521 159l16 16" stroke="#17202c" stroke-linecap="round" stroke-width="7"/>
    <path d="M462 135a18 18 0 1 1 36 0c0 10-8 15-11 23h-14c-3-8-11-13-11-23Z" fill="#fff8c7" stroke="#17202c" stroke-width="6"/>
    <path d="M472 169h16M474 158h12" stroke="#17202c" stroke-linecap="round" stroke-width="6"/>
  </g>
  <g filter="url(#shadow)">
    <rect x="174" y="188" width="258" height="202" fill="url(#odd)" rx="26"/>
    <rect x="210" y="226" width="64" height="64" fill="#f8fbff" rx="14"/>
    <rect x="296" y="226" width="64" height="64" fill="#f8fbff" rx="14"/>
    <rect x="210" y="308" width="64" height="64" fill="#f8fbff" rx="14"/>
    <text x="242" y="270" fill="#17202c" font-family="Arial, sans-serif" font-size="38" font-weight="800" text-anchor="middle">1</text>
    <text x="328" y="270" fill="#17202c" font-family="Arial, sans-serif" font-size="38" font-weight="800" text-anchor="middle">3</text>
    <text x="242" y="352" fill="#17202c" font-family="Arial, sans-serif" font-size="38" font-weight="800" text-anchor="middle">5</text>
    <text x="350" y="354" fill="#fff" font-family="Arial, sans-serif" font-size="28" font-weight="800">ODD</text>
  </g>
  <g filter="url(#shadow)">
    <rect x="528" y="188" width="258" height="202" fill="url(#even)" rx="26"/>
    <rect x="564" y="226" width="64" height="64" fill="#f8fbff" rx="14"/>
    <rect x="650" y="226" width="64" height="64" fill="#f8fbff" rx="14"/>
    <rect x="564" y="308" width="64" height="64" fill="#f8fbff" rx="14"/>
    <text x="596" y="270" fill="#17202c" font-family="Arial, sans-serif" font-size="38" font-weight="800" text-anchor="middle">2</text>
    <text x="682" y="270" fill="#17202c" font-family="Arial, sans-serif" font-size="38" font-weight="800" text-anchor="middle">4</text>
    <text x="596" y="352" fill="#17202c" font-family="Arial, sans-serif" font-size="38" font-weight="800" text-anchor="middle">6</text>
    <text x="682" y="354" fill="#fff" font-family="Arial, sans-serif" font-size="28" font-weight="800">EVEN</text>
  </g>
  <path d="M452 288h56" stroke="#17202c" stroke-linecap="round" stroke-width="10"/>
  <path d="M491 267l22 21-22 21" fill="none" stroke="#17202c" stroke-linecap="round" stroke-linejoin="round" stroke-width="10"/>
  <path d="M840 212h46M863 189v46" stroke="#5470ea" stroke-linecap="round" stroke-width="5"/>
  <path d="M780 430h36M798 412v36" stroke="#7ccba1" stroke-linecap="round" stroke-width="5"/>
</svg>
