<svg xmlns="http://www.w3.org/2000/svg" viewBox="0 0 960 540" role="img" aria-labelledby="title desc">
  <title id="title">Project Planner cover</title>
  <desc id="desc">Illustrated Kanban planner with active and completed task lanes.</desc>
  <rect width="960" height="540" fill="#eef5ff"/>
  <rect x="120" y="90" width="720" height="360" rx="22" fill="#f8fbff" stroke="#b7cbf5" stroke-width="4"/>
  <rect x="168" y="144" width="278" height="250" rx="16" fill="#ffffff" stroke="#1f2937" stroke-width="5"/>
  <rect x="514" y="144" width="278" height="250" rx="16" fill="#ffffff" stroke="#1f2937" stroke-width="5"/>
  <rect x="190" y="170" width="118" height="18" rx="6" fill="#4f70d8"/>
  <rect x="536" y="170" width="132" height="18" rx="6" fill="#88d2b0"/>
  <rect x="196" y="220" width="206" height="48" rx="10" fill="#dce8ff" stroke="#a8bdf0" stroke-width="3"/>
  <rect x="196" y="292" width="206" height="48" rx="10" fill="#dce8ff" stroke="#a8bdf0" stroke-width="3"/>
  <rect x="542" y="240" width="206" height="48" rx="10" fill="#ecfdf3" stroke="#80d7a9" stroke-width="3"/>
  <path d="M426 264h88" stroke="#4f70d8" stroke-width="12" stroke-linecap="round"/>
  <path d="M492 238l30 26-30 26" fill="none" stroke="#4f70d8" stroke-width="12" stroke-linecap="round" stroke-linejoin="round"/>
  <path d="M574 264l24 24 54-66" fill="none" stroke="#35a66f" stroke-width="12" stroke-linecap="round" stroke-linejoin="round"/>
  <circle cx="86" cy="132" r="13" fill="#88d2b0"/>
  <circle cx="882" cy="158" r="12" fill="#ef8068"/>
  <path d="M86 394h54M86 418h32" stroke="#4f70d8" stroke-width="6" stroke-linecap="round"/>
  <path d="M832 386h44M832 410h70" stroke="#1f2937" stroke-width="6" stroke-linecap="round"/>
</svg>
