<svg width="960" height="540" viewBox="0 0 960 540" fill="none" xmlns="http://www.w3.org/2000/svg">
  <rect width="960" height="540" rx="18" fill="#EEF4FF"/>
  <rect x="126" y="98" width="210" height="250" rx="18" fill="#FFF4BF" stroke="#D9B85C" stroke-width="4"/>
  <rect x="160" y="150" width="128" height="16" rx="8" fill="#141B27"/>
  <rect x="160" y="198" width="132" height="12" rx="6" fill="#7C6A34"/>
  <rect x="160" y="230" width="104" height="12" rx="6" fill="#7C6A34"/>
  <circle cx="230" cy="100" r="26" fill="#4C6BCF"/>
  <rect x="380" y="142" width="224" height="250" rx="18" fill="#DBEAFE" stroke="#88A9E8" stroke-width="4"/>
  <rect x="418" y="194" width="126" height="16" rx="8" fill="#141B27"/>
  <rect x="418" y="242" width="144" height="12" rx="6" fill="#586986"/>
  <rect x="418" y="274" width="98" height="12" rx="6" fill="#586986"/>
  <circle cx="492" cy="144" r="26" fill="#86CDA1"/>
  <rect x="652" y="94" width="198" height="264" rx="18" fill="#FFE2E2" stroke="#E9A0A0" stroke-width="4"/>
  <rect x="686" y="146" width="114" height="16" rx="8" fill="#141B27"/>
  <rect x="686" y="194" width="112" height="12" rx="6" fill="#7E5555"/>
  <rect x="686" y="226" width="86" height="12" rx="6" fill="#7E5555"/>
  <circle cx="750" cy="96" r="26" fill="#E37763"/>
  <rect x="248" y="374" width="440" height="56" rx="28" fill="#FFFFFF" stroke="#BFD3F7" stroke-width="4"/>
  <circle cx="290" cy="402" r="14" fill="#86CDA1"/>
  <rect x="324" y="392" width="274" height="20" rx="10" fill="#DCE8FF"/>
  <path d="M92 152H122M107 137V167" stroke="#4C6BCF" stroke-width="6" stroke-linecap="round"/>
  <path d="M842 402H872M857 387V417" stroke="#4C6BCF" stroke-width="6" stroke-linecap="round"/>
  <circle cx="816" cy="166" r="10" fill="#F1D343"/>
  <circle cx="112" cy="396" r="12" fill="#86CDA1"/>
</svg>
