<svg xmlns="http://www.w3.org/2000/svg" viewBox="0 0 960 540" role="img" aria-labelledby="title desc">
  <title id="title">Technical Documentation cover</title>
  <desc id="desc">Illustrated documentation board with cards, code lines, and a chart marker.</desc>
  <rect width="960" height="540" fill="#eef5ff"/>
  <rect x="112" y="72" width="736" height="396" rx="18" fill="#f8fbff" stroke="#b7cbf5" stroke-width="4"/>
  <rect x="156" y="118" width="220" height="304" rx="16" fill="#18202d"/>
  <rect x="184" y="154" width="120" height="22" rx="6" fill="#ffffff"/>
  <rect x="184" y="196" width="158" height="16" rx="5" fill="#dce8ff"/>
  <rect x="184" y="230" width="132" height="16" rx="5" fill="#dce8ff"/>
  <rect x="184" y="264" width="164" height="16" rx="5" fill="#dce8ff"/>
  <rect x="184" y="318" width="76" height="48" rx="10" fill="#4f70d8"/>
  <rect x="276" y="318" width="76" height="48" rx="10" fill="#88d2b0"/>
  <rect x="424" y="124" width="300" height="68" rx="14" fill="#dce8ff" stroke="#a8bdf0" stroke-width="3"/>
  <rect x="454" y="147" width="182" height="14" rx="5" fill="#1f2937"/>
  <rect x="454" y="220" width="350" height="58" rx="14" fill="#fff7e8" stroke="#f1c46f" stroke-width="3"/>
  <rect x="484" y="242" width="238" height="14" rx="5" fill="#1f2937"/>
  <rect x="454" y="306" width="304" height="58" rx="14" fill="#ecfdf3" stroke="#80d7a9" stroke-width="3"/>
  <rect x="484" y="328" width="204" height="14" rx="5" fill="#1f2937"/>
  <path d="M780 120v94" stroke="#4f70d8" stroke-width="8" stroke-linecap="round"/>
  <path d="M746 172h68" stroke="#4f70d8" stroke-width="8" stroke-linecap="round"/>
  <circle cx="780" cy="120" r="18" fill="#f7d84c"/>
  <circle cx="782" cy="386" r="44" fill="#4f70d8" opacity=".16"/>
  <path d="M750 390l22 22 46-58" fill="none" stroke="#4f70d8" stroke-width="12" stroke-linecap="round" stroke-linejoin="round"/>
  <circle cx="82" cy="130" r="12" fill="#88d2b0"/>
  <circle cx="886" cy="164" r="11" fill="#ef8068"/>
  <path d="M96 420h54M96 444h32" stroke="#4f70d8" stroke-width="6" stroke-linecap="round"/>
  <path d="M846 396h44M846 420h70" stroke="#1f2937" stroke-width="6" stroke-linecap="round"/>
</svg>
