<svg xmlns="http://www.w3.org/2000/svg" viewBox="0 0 1280 680" role="img" aria-labelledby="title desc">
  <title id="title">To-Do List App cover</title>
  <desc id="desc">Illustrated task board with check marks, cards, and productivity symbols.</desc>
  <rect width="1280" height="680" fill="#eef5ff"/>
  <rect x="0" y="0" width="1280" height="680" fill="url(#glow)"/>
  <defs>
    <radialGradient id="glow" cx="62%" cy="38%" r="68%">
      <stop offset="0%" stop-color="#fffdf7"/>
      <stop offset="58%" stop-color="#f1f7ff"/>
      <stop offset="100%" stop-color="#ddeaff"/>
    </radialGradient>
  </defs>
  <g fill="none" stroke-linecap="round" stroke-linejoin="round">
    <path d="M203 123h853v433H203z" fill="#ffffff" stroke="#9bbdf4" stroke-width="5"/>
    <path d="M203 123h853v72H203z" fill="#dceaff" stroke="#9bbdf4" stroke-width="5"/>
    <path d="M262 262h105" stroke="#5b72f0" stroke-width="18"/>
    <path d="M262 362h105" stroke="#5b72f0" stroke-width="18"/>
    <path d="M262 462h105" stroke="#5b72f0" stroke-width="18"/>
    <rect x="420" y="238" width="500" height="58" rx="16" fill="#f8fbff" stroke="#1f2937" stroke-width="5"/>
    <rect x="420" y="338" width="430" height="58" rx="16" fill="#f8fbff" stroke="#1f2937" stroke-width="5"/>
    <rect x="420" y="438" width="350" height="58" rx="16" fill="#f8fbff" stroke="#1f2937" stroke-width="5"/>
    <path d="M287 265l32 34 70-78" stroke="#21b47b" stroke-width="15"/>
    <path d="M287 365l32 34 70-78" stroke="#21b47b" stroke-width="15"/>
    <circle cx="330" cy="460" r="42" fill="#fff" stroke="#1f2937" stroke-width="9"/>
    <path d="M470 267h318M470 367h252M470 467h205" stroke="#9aa8ba" stroke-width="12"/>
    <path d="M1010 254l37 37 74-87" stroke="#5b72f0" stroke-width="17"/>
    <circle cx="1057" cy="248" r="108" fill="#eef5ff" stroke="#1f2937" stroke-width="8"/>
    <path d="M1001 406h128M1017 455h96" stroke="#1f2937" stroke-width="12"/>
    <path d="M135 208h10M175 208h10M215 208h10M135 248h10M175 248h10M215 248h10M135 288h10M175 288h10M215 288h10" stroke="#5b72f0" stroke-width="10"/>
    <path d="M1112 384h10M1152 384h10M1192 384h10M1112 424h10M1152 424h10M1192 424h10M1112 464h10M1152 464h10M1192 464h10" stroke="#1f2937" stroke-width="10"/>
    <circle cx="109" cy="448" r="31" stroke="#8bd3c7" stroke-width="8"/>
    <path d="M1143 112v96M1095 160h96" stroke="#f4c542" stroke-width="10"/>
    <path d="M102 107l31 52h-62z" fill="#e76f51"/>
    <path d="M1046 566l35 35 35-35" stroke="#5b72f0" stroke-width="10"/>
  </g>
</svg>
